# Blender v2.76 (sub 0) OBJ File: ''
# www.blender.org
o cube-textures
v -1.000000 -1.000000 -1.000000
v 1.000000 1.000000 -1.000000
v 1.000000 -1.000000 -1.000000
v -1.000000 1.000000 -1.000000
v -1.000000 1.000000 1.000000
v -1.000000 -1.000000 1.000000
v 1.000000 1.000000 1.000000
v 1.000000 -1.000000 1.000000
vt 1.000000 1.000000
vt 0.000000 0.000000
vt 0.000000 1.000000
vt 1.000000 0.000000
vn 0.000000 0.000000 -1.000000
vn -1.000000 0.000000 0.000000
vn 0.000000 1.000000 0.000000
vn 1.000000 0.000000 0.000000
vn 0.000000 -1.000000 -0.000000
vn 0.000000 0.000000 1.000000
s 1
f 1/1/1 2/2/1 3/3/1
f 1/1/1 4/4/1 2/2/1
f 1/3/2 5/4/2 4/2/2
f 1/3/2 6/1/2 5/4/2
f 4/2/3 7/1/3 2/4/3
f 4/2/3 5/3/3 7/1/3
f 3/1/4 2/4/4 7/2/4
f 3/1/4 7/2/4 8/3/4
f 1/3/5 3/1/5 8/4/5
f 1/3/5 8/4/5 6/2/5
f 6/3/6 8/1/6 7/4/6
f 6/3/6 7/4/6 5/2/6
